<!DOCTYPE svg PUBLIC "-//W3C//DTD SVG 1.1//EN" "http://www.w3.org/Graphics/SVG/1.1/DTD/svg11.dtd">
<!-- Uploaded to: SVG Repo, www.svgrepo.com, Transformed by: SVG Repo Mixer Tools -->
<svg width="800px" height="800px" viewBox="-1.6 -1.6 19.20 19.20" fill="none" xmlns="http://www.w3.org/2000/svg" stroke="#000" stroke-width="1.088" transform="rotate(0)">
<g id="SVGRepo_bgCarrier" stroke-width="0">
<path transform="translate(-1.6, -1.6), scale(0.6)" d="M16,27.059216294023727C19.432638837866804,27.17149555251544,23.608821613417007,30.37333292323479,25.95981939030999,27.869650539991405C28.395355581433563,25.275939429159777,24.25615986647621,21.068457779244397,24.90958633112408,17.57100045712852C25.577004281672753,13.998653874386479,30.790473979727288,11.569798004933496,29.649755864623454,8.11930977718698C28.553532364781255,4.8034105807932335,23.883759091439018,4.113113803667219,20.396685882370367,3.920204817752504C17.55647277565367,3.7630808925152874,15.331439921404371,5.904575353414632,12.79223270673663,7.186731794893813C10.678527222360529,8.254033859305014,8.110662035433865,8.711332644320482,6.889981902665289,10.740328599181435C5.65850813387897,12.787265571701594,6.526130376155809,15.29022879531849,6.480132017358596,17.67860957812234C6.4168805247549034,20.96282782782791,4.232523474490872,24.929951105569216,6.572297751497942,27.235498024560833C8.880740007253767,29.510171262372406,12.76089228354133,26.953267305575885,16,27.059216294023727" fill="#7ed0ec" strokewidth="0"/>
</g>
<g id="SVGRepo_tracerCarrier" stroke-linecap="round" stroke-linejoin="round" stroke="#CCCCCC" stroke-width="0.096"/>
<g id="SVGRepo_iconCarrier"> <path fill-rule="evenodd" clip-rule="evenodd" d="M8 16L3.54223 12.3383C1.93278 11.0162 1 9.04287 1 6.96005C1 3.11612 4.15607 0 8 0C11.8439 0 15 3.11612 15 6.96005C15 9.04287 14.0672 11.0162 12.4578 12.3383L8 16ZM3 6H5C6.10457 6 7 6.89543 7 8V9L3 7.5V6ZM11 6C9.89543 6 9 6.89543 9 8V9L13 7.5V6H11Z" fill="#000000"/> </g>
</svg>